<?xml version="1.0" standalone="no"?>
<!DOCTYPE svg PUBLIC "-//W3C//DTD SVG 20010904//EN"
 "http://www.w3.org/TR/2001/REC-SVG-20010904/DTD/svg10.dtd">
<svg version="1.0" xmlns="http://www.w3.org/2000/svg"
 width="3840.000000pt" height="2160.000000pt" viewBox="0 0 3840.000000 2160.000000"
 preserveAspectRatio="xMidYMid meet">

<g transform="translate(0.000000,2160.000000) scale(0.100000,-0.100000)"
fill="#000000" stroke="none">
<path d="M3 14119 c2 -5572 5 -7492 14 -7514 l11 -30 1 35 2 35 14 -25 c9 -15
14 -19 15 -10 0 12 9 15 40 12 37 -4 40 -2 40 22 0 14 5 26 10 26 6 0 10 -11
10 -25 0 -25 1 -25 80 -25 47 0 80 4 80 10 0 6 -9 10 -21 10 -11 0 -17 4 -14
10 8 13 115 13 115 0 0 -5 18 -10 40 -10 29 0 40 4 40 15 0 19 24 19 44 0 19
-19 36 -19 36 0 0 11 11 15 40 15 22 0 40 5 40 10 0 6 47 10 120 10 107 0 120
2 120 18 1 16 1 16 14 0 16 -22 35 -23 50 -2 9 12 31 15 94 15 46 0 82 4 82 9
0 6 36 10 80 10 47 0 80 -4 80 -10 0 -17 22 -11 44 13 17 19 29 22 68 19 39
-3 47 -8 50 -25 3 -18 9 -14 43 30 27 35 47 52 63 53 12 0 22 -4 22 -10 0 -5
-11 -10 -25 -10 -16 0 -25 -6 -25 -15 0 -11 11 -15 40 -15 29 0 40 4 40 15 0
8 8 15 18 15 9 0 26 7 36 15 27 20 106 20 106 0 0 -20 17 -19 38 1 13 14 30
15 106 10 84 -6 92 -5 106 14 15 21 66 28 72 10 2 -6 94 -10 241 -11 130 0
237 -4 237 -8 0 -5 138 -11 308 -15 338 -7 652 -21 722 -31 25 -3 110 -8 190
-11 80 -2 165 -6 190 -8 25 -2 104 -7 175 -10 72 -3 193 -9 270 -12 77 -4 144
-9 150 -12 5 -3 84 -8 175 -9 91 -2 178 -8 194 -13 15 -6 31 -8 35 -6 4 3 65
0 137 -5 71 -6 199 -14 284 -19 85 -5 173 -12 195 -15 22 -3 73 -5 113 -5 70
1 209 -8 457 -30 61 -6 155 -12 210 -15 143 -7 274 -15 320 -21 22 -2 105 -9
185 -14 237 -16 392 -28 625 -49 121 -11 274 -22 340 -25 66 -4 156 -11 200
-16 44 -6 118 -12 165 -15 47 -2 103 -7 125 -9 22 -3 103 -10 180 -16 204 -15
375 -29 495 -40 228 -21 444 -40 640 -55 113 -8 241 -19 285 -25 44 -5 150
-14 235 -20 156 -11 390 -32 575 -50 55 -6 161 -15 235 -20 148 -11 397 -34
531 -50 48 -6 113 -10 145 -10 33 0 73 -4 90 -9 16 -5 88 -11 159 -15 72 -4
168 -11 215 -16 88 -9 113 -12 320 -29 262 -23 370 -31 515 -41 83 -6 211 -15
285 -20 456 -33 584 -41 845 -50 160 -5 340 -12 400 -15 61 -2 182 -7 270 -10
88 -3 270 -10 405 -15 135 -6 371 -14 525 -20 154 -6 399 -15 545 -20 146 -6
389 -15 540 -20 151 -6 390 -14 530 -20 140 -5 381 -14 535 -20 154 -6 397
-15 540 -20 143 -6 445 -17 670 -25 610 -22 931 -34 1220 -45 143 -5 386 -14
540 -20 607 -22 1092 -40 1350 -50 149 -6 448 -17 665 -25 217 -8 530 -20 695
-26 165 -7 408 -13 540 -13 l240 -1 95 49 c52 26 105 58 118 69 20 19 21 23 8
33 -27 19 -18 31 42 60 271 130 439 335 519 634 20 75 29 1282 34 4370 4 2537
7 2398 -43 2545 -101 296 -347 519 -658 594 -207 50 -347 74 -450 79 -63 2
-549 0 -1080 -7 -531 -6 -1325 -16 -1765 -21 -889 -11 -2075 -25 -3360 -40
-4164 -48 -3957 -45 -4043 -70 -289 -82 -501 -286 -601 -577 -54 -159 -51 16
-52 -3317 -1 -1694 -4 -3094 -8 -3111 l-6 -30 -68 3 c-38 2 -92 5 -120 7 -260
17 -416 26 -612 36 -126 6 -255 12 -285 14 -30 2 -144 4 -252 5 -108 1 -198 6
-200 10 -2 5 -59 11 -128 13 -563 18 -806 30 -812 40 -4 8 -96 12 -285 14
-153 2 -296 7 -318 13 -58 13 -135 19 -350 26 -201 6 -357 16 -520 34 -55 6
-152 12 -215 14 -63 1 -162 8 -219 15 -57 6 -160 14 -230 17 -262 11 -255 10
-247 29 3 8 1 15 -4 15 -6 0 -10 -7 -10 -16 0 -13 -7 -15 -37 -9 -21 4 -39 11
-41 16 -5 14 -80 11 -85 -3 -3 -10 -11 -10 -39 0 -19 6 -71 12 -116 12 -74 0
-82 2 -82 19 0 16 -11 20 -76 26 -58 5 -79 4 -85 -6 -6 -10 -13 -10 -34 -1
-14 7 -66 12 -115 12 -73 0 -90 3 -90 15 0 11 -11 15 -40 15 l-40 0 0 40 0 40
40 0 c54 0 51 20 -2 21 -40 1 -39 2 17 11 33 5 83 6 110 3 71 -9 194 -6 307 9
58 7 105 9 120 3 12 -4 43 -5 68 -1 25 4 65 7 90 7 40 0 41 0 8 4 -50 6 -49
23 2 23 44 0 55 21 21 39 -10 6 -21 17 -25 26 -4 12 5 15 59 15 l65 0 0 -40
c0 -22 5 -40 10 -40 6 0 10 18 10 40 0 22 5 40 10 40 6 0 10 18 10 40 0 33 -3
40 -20 40 -13 0 -20 -7 -20 -20 0 -17 -7 -20 -40 -20 -33 0 -40 3 -40 20 0 13
7 20 20 20 17 0 20 7 20 40 0 30 4 40 16 40 12 0 8 10 -16 40 -28 36 -36 40
-76 40 -24 0 -44 5 -44 10 0 6 18 10 40 10 38 0 40 2 40 30 0 28 2 30 40 30
40 0 40 0 40 39 0 23 5 41 13 44 10 3 10 11 0 39 -7 19 -13 44 -13 56 0 19 -6
22 -40 22 -33 0 -40 3 -40 20 0 16 7 20 30 20 28 0 30 2 30 40 0 22 5 40 10
40 6 0 10 9 10 20 0 17 7 20 40 20 22 0 40 5 40 10 0 6 18 10 40 10 22 0 40 5
40 10 0 6 -33 10 -80 10 l-80 0 0 40 c0 40 0 40 -39 40 -36 0 -40 -3 -43 -27
l-3 -28 -25 25 -25 25 28 3 c15 2 27 8 27 13 0 5 18 9 40 9 22 0 40 -4 40 -10
0 -6 27 -10 60 -10 l60 0 0 39 c0 33 4 40 23 44 13 3 7 5 -16 6 -28 1 -46 9
-70 33 l-31 33 27 3 c23 3 27 8 27 33 0 27 -2 29 -40 29 -22 0 -40 5 -40 10 0
6 14 10 30 10 28 0 30 2 30 40 0 38 -2 40 -30 40 -16 0 -30 5 -30 10 0 6 18
10 40 10 22 0 40 -4 40 -10 0 -5 14 -10 30 -10 28 0 30 2 30 40 l0 40 -40 0
-40 0 0 80 c0 44 4 80 9 80 5 0 11 -12 13 -27 l3 -28 23 23 c29 29 28 40 -3
48 -38 10 -30 31 15 39 39 7 40 8 40 46 0 39 0 39 -40 39 -38 0 -40 -2 -40
-30 0 -16 -4 -30 -10 -30 -5 0 -10 18 -10 40 0 22 5 40 10 40 6 0 10 18 10 39
0 36 3 40 28 43 l27 3 -27 26 c-39 36 -35 49 12 49 33 0 40 3 40 20 0 17 -7
20 -40 20 -33 0 -40 3 -40 20 0 11 5 20 10 20 6 0 10 18 10 40 l0 40 -50 0
c-49 0 -50 1 -50 30 0 28 -2 30 -40 30 -22 0 -40 5 -40 10 0 6 27 10 60 10
l60 0 0 40 0 40 60 0 c33 0 60 4 60 10 0 6 -18 10 -40 10 l-40 0 0 51 c0 37 5
56 18 66 12 11 14 16 4 20 -8 3 -3 17 19 44 l31 39 -26 0 c-24 0 -26 4 -26 40
0 22 -4 40 -10 40 -5 0 -10 -4 -10 -10 0 -5 -18 -10 -40 -10 -22 0 -40 5 -40
10 0 6 16 10 36 10 l36 0 -32 40 c-17 22 -38 40 -46 40 -11 0 -14 18 -14 80
l0 80 46 0 46 0 -32 40 c-28 36 -36 40 -75 40 -33 0 -44 -4 -47 -17 -3 -15 -4
-15 -17 0 -12 15 -11 17 3 17 12 0 16 10 16 40 l0 40 60 0 60 0 0 -40 c0 -33
3 -40 20 -40 17 0 20 7 20 40 l0 40 40 0 c29 0 40 -4 40 -15 0 -20 19 -19 26
0 11 27 -12 40 -60 37 -25 -2 -46 -8 -46 -13 0 -5 -9 -9 -20 -9 -17 0 -20 7
-20 40 0 33 3 40 20 40 18 0 20 7 20 60 l0 60 -40 0 -40 0 0 -60 c0 -53 -2
-60 -20 -60 -17 0 -20 7 -20 40 0 33 -3 40 -20 40 -17 0 -20 7 -20 40 l0 40
40 0 40 0 0 40 0 40 -40 0 -40 0 0 40 c0 33 3 40 20 40 17 0 20 7 20 40 0 33
3 40 20 40 18 0 20 -7 20 -60 l0 -60 40 0 c33 0 40 -3 40 -20 0 -15 7 -20 25
-20 28 0 25 24 -6 41 -11 5 -19 16 -19 24 0 10 -10 15 -30 15 -28 0 -30 2 -30
40 0 22 -4 40 -10 40 -6 0 -10 33 -10 79 0 79 0 80 28 83 l27 3 -28 26 c-15
15 -27 32 -27 39 0 8 -6 10 -17 5 -35 -15 -63 -17 -63 -6 0 6 -17 11 -38 11
-31 0 -41 5 -55 29 -21 36 -22 51 -2 51 10 0 15 -10 15 -30 0 -28 2 -30 40
-30 36 0 40 2 40 26 0 15 15 44 36 70 l36 44 -26 0 c-24 0 -26 4 -26 40 0 38
2 40 30 40 17 0 30 5 30 10 0 6 -18 10 -40 10 l-40 0 0 -60 0 -60 -40 0 c-22
0 -40 5 -40 10 0 6 9 10 20 10 17 0 20 7 20 40 0 33 -3 40 -20 40 -17 0 -20 7
-20 45 l0 45 40 0 c33 0 40 3 40 20 0 17 -7 20 -40 20 -29 0 -40 4 -40 15 0
11 -11 15 -40 15 -22 0 -40 5 -40 10 0 6 18 10 40 10 22 0 40 -4 40 -10 0 -5
9 -10 20 -10 17 0 20 7 20 40 0 33 -3 40 -20 40 -17 0 -20 7 -20 40 l0 39 68
3 67 3 -28 26 c-15 15 -27 31 -27 38 0 6 -17 11 -40 11 -22 0 -40 5 -40 10 0
6 18 10 40 10 22 0 40 -4 40 -10 0 -5 5 -10 10 -10 6 0 10 17 10 39 0 36 -3
39 -43 55 -52 20 -57 20 -57 1 0 -8 -4 -15 -10 -15 -5 0 -10 18 -10 40 0 22 5
40 10 40 6 0 10 18 10 40 0 22 -4 40 -10 40 -5 0 -10 18 -10 40 l0 40 86 0 86
0 -31 39 c-31 39 -31 40 -9 43 l23 3 -28 26 c-15 15 -27 31 -27 38 0 6 -9 11
-20 11 -17 0 -20 7 -20 40 0 33 -3 40 -20 40 -14 0 -20 7 -20 21 0 20 3 21 80
14 56 -5 80 -4 80 4 0 6 -17 11 -40 11 -29 0 -40 4 -40 15 0 11 11 15 40 15
22 0 40 5 40 10 0 6 -18 10 -40 10 -22 0 -40 -4 -40 -10 0 -6 -27 -10 -60 -10
l-60 0 0 40 c0 30 4 40 16 40 12 0 14 5 9 18 -4 9 -10 27 -12 40 -5 18 -1 22
21 22 24 0 26 4 26 40 0 22 -4 40 -10 40 -5 0 -10 23 -10 50 l0 50 40 0 c33 0
40 3 40 20 0 17 -7 20 -40 20 -22 0 -40 5 -40 10 0 6 -18 10 -40 10 -22 0 -40
5 -40 10 0 6 18 10 40 10 l40 0 0 50 0 50 40 0 c33 0 40 3 40 20 0 16 7 20 36
20 l36 0 -33 41 c-18 23 -35 37 -37 30 -4 -11 -82 -16 -82 -5 0 3 16 26 36 50
l36 44 -46 0 -46 0 0 40 c0 22 5 40 10 40 6 0 10 18 10 40 0 22 -4 40 -10 40
-5 0 -10 18 -10 40 0 22 5 40 10 40 6 0 10 18 10 40 l0 40 80 0 c47 0 80 4 80
10 0 6 -18 10 -40 10 -22 0 -40 5 -40 10 0 6 -18 10 -40 10 -33 0 -40 3 -40
20 0 13 7 20 20 20 17 0 20 7 20 40 0 22 5 40 10 40 6 0 10 18 10 40 l0 40
-40 0 -40 0 0 40 c0 22 5 40 10 40 6 0 10 -13 10 -30 0 -28 2 -30 40 -30 l40
0 0 41 c0 33 6 47 28 68 23 22 24 26 10 29 -14 3 -18 13 -18 43 0 21 -4 39
-10 39 -5 0 -10 -22 -10 -50 l0 -50 -40 0 -40 0 0 50 c0 43 3 50 20 50 18 0
20 7 20 80 0 47 4 80 10 80 6 0 10 18 10 40 0 38 -2 40 -30 40 -16 0 -30 5
-30 10 0 6 18 10 40 10 l40 0 0 70 c0 63 2 70 20 70 17 0 20 7 20 40 0 33 -3
40 -20 40 -11 0 -20 7 -20 15 0 11 -11 15 -40 15 -22 0 -40 5 -40 10 0 6 18
10 40 10 29 0 40 4 40 15 0 11 11 15 40 15 30 0 40 -4 40 -16 0 -17 22 -14 28
4 2 7 -3 12 -12 12 -12 0 -16 10 -16 40 l0 40 -40 0 -40 0 0 40 0 40 60 0 60
0 0 80 c0 73 -2 80 -20 80 -17 0 -20 7 -20 39 0 36 3 40 28 43 l27 3 -27 26
c-38 35 -35 49 8 49 l36 0 -32 40 c-24 30 -28 40 -16 40 12 0 16 10 16 40 0
33 -3 40 -20 40 -17 0 -20 7 -20 40 l0 40 79 0 c61 0 80 3 85 15 3 8 12 15 21
15 22 0 18 17 -5 23 -20 5 -28 27 -10 27 6 0 10 33 10 80 0 47 -4 80 -10 80
-5 0 -10 -7 -10 -15 0 -8 -4 -15 -9 -15 -5 0 -25 7 -44 15 -20 8 -52 15 -72
15 -19 0 -35 5 -35 10 0 6 18 10 40 10 22 0 40 -4 40 -10 0 -5 9 -10 20 -10
17 0 20 7 20 40 0 33 3 40 20 40 17 0 20 7 20 40 0 33 -3 40 -20 40 -17 0 -20
7 -20 39 0 33 -4 40 -22 44 -13 2 -4 5 20 6 40 1 42 3 42 30 0 28 -3 30 -42
33 -43 3 -43 3 -46 46 -3 41 -2 42 27 42 24 0 31 4 31 20 0 11 7 20 15 20 12
0 15 13 15 60 l0 60 40 0 c40 0 40 0 40 39 0 22 -4 41 -9 43 -15 5 -18 101 -4
105 9 3 13 -7 13 -31 0 -35 1 -36 40 -36 33 0 40 3 40 20 0 13 7 20 20 20 17
0 20 7 20 39 l0 40 -52 3 c-50 4 -51 4 -20 12 43 11 43 41 0 51 -29 7 -30 9
-10 12 18 4 22 11 22 44 0 21 5 39 10 39 6 0 10 -18 10 -40 0 -33 3 -40 20
-40 17 0 20 7 20 40 0 22 -4 40 -10 40 -5 0 -10 18 -10 40 0 33 -3 40 -20 40
-17 0 -20 7 -20 40 l0 40 40 0 40 0 0 80 c0 47 4 80 10 80 6 0 10 -18 10 -40
0 -22 5 -40 10 -40 6 0 10 18 10 40 0 36 2 40 26 40 l26 0 -30 38 -29 37 33
30 c19 17 34 34 34 38 0 5 -16 29 -36 53 l-36 44 36 0 c35 0 36 1 36 40 l0 40
-40 0 c-22 0 -40 4 -40 9 0 4 -17 15 -37 23 l-38 14 38 14 c35 13 37 16 37 57
0 24 5 43 10 43 6 0 10 -18 10 -40 0 -33 3 -40 20 -40 17 0 20 7 20 40 0 33 3
40 20 40 13 0 20 -7 20 -20 0 -11 -4 -20 -10 -20 -5 0 -10 -9 -10 -20 0 -11 5
-20 10 -20 6 0 10 9 10 20 0 13 7 20 20 20 12 0 20 -7 20 -16 0 -8 6 -22 14
-30 16 -16 86 -19 86 -4 0 6 -18 10 -40 10 -33 0 -40 3 -40 20 0 11 -4 20 -10
20 -5 0 -10 9 -10 20 0 11 5 20 10 20 6 0 10 9 10 20 0 17 7 20 40 20 33 0 40
-3 40 -20 0 -11 5 -20 10 -20 6 0 10 18 10 40 0 22 5 40 10 40 6 0 10 18 10
40 0 22 -4 40 -10 40 -6 0 -10 33 -10 80 0 47 -4 80 -10 80 -5 0 -10 18 -10
40 0 22 -4 40 -10 40 -5 0 -10 18 -10 40 0 22 5 40 10 40 6 0 10 18 10 40 l0
40 80 0 80 0 0 40 0 40 -40 0 c-38 0 -40 2 -40 30 0 28 2 30 40 30 22 0 40 5
40 10 0 6 14 10 30 10 28 0 30 -2 30 -40 0 -22 5 -40 10 -40 6 0 10 27 10 60
l0 60 -40 0 c-51 0 -52 17 -4 76 27 32 32 44 20 44 -12 0 -16 10 -16 40 l0 40
60 0 c47 0 60 -3 60 -15 0 -11 -11 -15 -40 -15 -22 0 -40 -4 -40 -10 0 -5 18
-10 39 -10 29 0 41 -5 44 -17 3 -10 5 -1 6 19 2 57 -6 68 -50 68 -37 0 -39 2
-39 30 0 23 4 30 20 30 17 0 20 7 20 40 0 30 -4 40 -16 40 -12 0 -7 12 20 44
32 39 36 51 36 100 0 49 2 56 20 56 13 0 20 -7 20 -20 0 -13 7 -20 20 -20 13
0 20 7 20 20 0 13 -7 20 -20 20 -18 0 -20 7 -20 60 0 53 2 60 20 60 17 0 20
-7 20 -40 0 -39 1 -40 36 -40 l36 0 -29 38 c-22 30 -27 45 -25 80 3 37 6 42
28 42 22 0 24 3 18 28 -4 15 -11 35 -15 44 -5 9 -9 33 -9 52 0 35 1 36 41 36
l41 0 -2 43 c-3 66 -2 67 35 83 50 20 43 34 -16 34 l-51 0 36 44 c26 33 36 54
36 80 0 20 -4 36 -10 36 -5 0 -10 18 -10 40 l0 40 53 1 52 0 -42 17 c-24 9
-43 19 -43 23 0 4 27 15 60 25 59 19 60 19 60 57 0 30 -4 37 -20 37 -17 0 -20
-7 -20 -40 0 -39 -1 -40 -36 -40 l-35 0 27 36 c22 29 27 45 25 80 -2 34 1 44
12 44 9 0 30 18 47 40 l32 40 -36 0 c-35 0 -36 1 -36 40 0 40 0 40 39 40 40 0
40 0 44 43 l4 42 1 -42 c2 -33 6 -43 19 -43 14 0 15 13 9 125 -6 125 -6 126
19 149 16 15 25 34 25 55 0 30 2 31 40 31 22 0 40 5 40 10 0 6 18 10 40 10 22
0 40 5 40 10 0 6 -9 10 -19 10 -18 0 -20 9 -23 88 -3 74 0 90 16 106 14 14 20
15 26 6 6 -9 14 -6 31 11 l24 24 -27 3 c-20 2 -28 9 -28 23 0 16 7 19 40 19
33 0 40 3 40 20 0 13 7 20 20 20 18 0 20 7 20 80 0 73 2 80 20 80 13 0 20 7
20 20 0 17 7 20 40 20 33 0 40 3 40 20 0 11 -4 20 -10 20 -5 0 -10 18 -10 40
0 38 -2 40 -30 40 -16 0 -30 5 -30 10 0 6 18 10 40 10 38 0 40 2 40 30 0 28 2
30 40 30 33 0 40 3 40 20 0 17 7 20 40 20 33 0 40 3 40 20 0 17 -7 20 -40 20
-22 0 -40 -4 -40 -10 0 -5 -18 -10 -40 -10 -22 0 -40 5 -40 10 0 6 18 10 40
10 l40 0 0 40 0 40 -40 0 -40 0 0 40 0 40 40 0 c22 0 40 5 40 10 0 6 33 10 80
10 73 0 80 2 80 20 0 17 -7 20 -40 20 -22 0 -40 5 -40 10 0 6 9 10 20 10 17 0
20 7 20 40 0 22 5 40 10 40 6 0 10 18 10 40 0 29 4 40 15 40 11 0 15 11 15 40
0 36 3 40 25 40 23 0 25 -4 25 -40 0 -22 5 -40 10 -40 6 0 10 16 10 36 0 26
-10 47 -36 80 l-36 44 55 0 55 0 4 48 c3 39 0 51 -19 68 -15 13 -23 33 -23 53
0 30 2 31 40 31 33 0 40 -3 40 -20 0 -13 7 -20 20 -20 17 0 20 7 20 40 0 39
-1 40 -34 40 -19 0 -38 5 -41 10 -4 6 41 10 127 11 73 0 156 4 183 8 31 5 -40
8 -189 9 -131 1 -241 4 -244 7 -3 3 68 5 158 5 90 0 161 2 159 5 -12 11 -735
14 -5487 21 l-5072 7 3 -7484z m10220 7414 c-13 -2 -33 -2 -45 0 -13 2 -3 4
22 4 25 0 35 -2 23 -4z m97 -23 c0 -5 -18 -10 -40 -10 -22 0 -40 5 -40 10 0 6
18 10 40 10 22 0 40 -4 40 -10z m-80 -160 c0 -5 18 -10 40 -10 33 0 40 -3 40
-20 0 -17 -7 -20 -40 -20 -22 0 -40 -4 -40 -10 0 -5 -4 -10 -10 -10 -5 0 -10
18 -10 40 0 22 5 40 10 40 6 0 10 -4 10 -10z m0 -160 c0 -5 -18 -10 -40 -10
-22 0 -40 5 -40 10 0 6 18 10 40 10 22 0 40 -4 40 -10z m-400 -880 c0 -5 -18
-10 -40 -10 -22 0 -40 5 -40 10 0 6 18 10 40 10 22 0 40 -4 40 -10z m-350
-220 c0 -5 -4 -10 -10 -10 -5 0 -10 5 -10 10 0 6 5 10 10 10 6 0 10 -4 10 -10z
m190 -115 c0 -22 -3 -24 -19 -16 -31 17 -34 41 -6 41 20 0 25 -5 25 -25z
m-240 -305 c0 -12 -27 -12 -55 0 -16 7 -13 9 18 9 20 1 37 -3 37 -9z m-14
-255 c14 -13 14 -17 0 -30 -19 -19 -33 -19 -52 0 -13 12 -13 17 -2 29 17 20
36 20 54 1z m-210 -775 c11 0 14 -6 10 -20 -3 -11 -9 -29 -12 -40 -10 -37 -32
-22 -36 25 -3 44 13 85 20 51 2 -9 10 -16 18 -16z m-170 -234 c8 -8 14 -31 14
-50 0 -20 5 -36 10 -36 6 0 10 -18 10 -40 0 -39 -1 -40 -37 -40 -34 0 -35 1
-20 18 12 13 17 37 17 80 l0 62 -40 0 c-22 0 -40 5 -40 10 0 15 70 12 86 -4z
m-6 -261 l0 -65 -40 0 -40 0 0 40 c0 23 5 40 11 40 7 0 22 11 35 25 13 14 26
25 29 25 3 0 5 -29 5 -65z m-320 -235 c0 -5 -4 -10 -10 -10 -5 0 -10 5 -10 10
0 6 5 10 10 10 6 0 10 -4 10 -10z m240 -140 c0 -5 -18 -10 -40 -10 -22 0 -40
5 -40 10 0 6 18 10 40 10 22 0 40 -4 40 -10z m-160 -75 c0 -8 -7 -15 -16 -15
-14 0 -14 3 -4 15 7 8 14 15 16 15 2 0 4 -7 4 -15z m-323 -261 c-3 -3 -12 -4
-19 -1 -8 3 -5 6 6 6 11 1 17 -2 13 -5z m263 -86 c0 -7 -5 -20 -10 -28 -8 -12
-10 -9 -10 13 0 15 5 27 10 27 6 0 10 -6 10 -12z m60 -28 c0 -22 -4 -40 -10
-40 -5 0 -10 4 -10 9 0 5 -3 23 -6 40 -5 24 -3 31 10 31 12 0 16 -10 16 -40z
m-80 -60 c0 -17 7 -20 40 -20 33 0 40 -3 40 -20 0 -13 -7 -20 -20 -20 -11 0
-20 -7 -20 -15 0 -8 -9 -15 -20 -15 -11 0 -20 7 -20 15 0 8 -7 15 -15 15 -11
0 -15 11 -15 40 0 29 4 40 15 40 8 0 15 -9 15 -20z m80 -115 c0 -18 -5 -25
-20 -25 -15 0 -20 7 -20 25 0 18 5 25 20 25 15 0 20 -7 20 -25z m-80 -15 c0
-5 -18 -10 -40 -10 -22 0 -40 5 -40 10 0 6 18 10 40 10 22 0 40 -4 40 -10z
m-320 -1010 c0 -22 -4 -40 -10 -40 -5 0 -10 18 -10 40 0 22 5 40 10 40 6 0 10
-18 10 -40z m-52 -52 c-6 -18 -28 -21 -28 -4 0 9 7 16 16 16 9 0 14 -5 12 -12z
m-348 -238 c0 -5 -4 -10 -10 -10 -5 0 -10 5 -10 10 0 6 5 10 10 10 6 0 10 -4
10 -10z m260 -74 c0 -3 -4 -8 -10 -11 -5 -3 -10 -1 -10 4 0 6 5 11 10 11 6 0
10 -2 10 -4z m-60 -116 c0 -22 -4 -40 -10 -40 -5 0 -10 18 -10 40 0 22 5 40
10 40 6 0 10 -18 10 -40z m-40 -185 c0 -8 -7 -15 -16 -15 -14 0 -14 3 -4 15 7
8 14 15 16 15 2 0 4 -7 4 -15z m80 -54 c0 -14 -5 -18 -20 -14 -25 7 -26 20 -2
26 9 3 18 5 20 6 1 0 2 -8 2 -18z m76 -193 c-3 -13 -6 -38 -6 -55 0 -30 -3
-33 -29 -33 -28 0 -30 3 -33 43 -3 37 0 44 22 54 40 18 53 16 46 -9z m-156
-313 c0 -34 -1 -35 -40 -35 -22 0 -40 5 -40 10 0 6 5 10 11 10 7 0 22 11 35
25 30 33 34 32 34 -10z m-80 -215 c0 -22 -4 -40 -10 -40 -5 0 -10 18 -10 40 0
22 5 40 10 40 6 0 10 -18 10 -40z m-160 -30 c0 -5 -4 -10 -10 -10 -5 0 -10 5
-10 10 0 6 5 10 10 10 6 0 10 -4 10 -10z m240 -115 c0 -22 -3 -24 -19 -16 -31
17 -34 41 -6 41 20 0 25 -5 25 -25z m-240 -625 c0 -5 -6 -10 -14 -10 -8 0 -18
5 -21 10 -3 6 3 10 14 10 12 0 21 -4 21 -10z m-45 -60 c3 -5 -3 -10 -14 -10
-12 0 -21 5 -21 10 0 6 6 10 14 10 8 0 18 -4 21 -10z m95 -50 c0 -22 -4 -40
-10 -40 -5 0 -10 18 -10 40 0 22 5 40 10 40 6 0 10 -18 10 -40z m-50 -290 c0
-18 -3 -19 -21 -9 -17 9 -19 13 -8 20 22 14 29 11 29 -11z m16169 -89 c49 -26
97 -81 130 -151 l26 -55 0 -645 0 -645 -1805 0 c-993 0 -3280 1 -5083 3
l-3277 2 2 588 3 587 33 67 c35 71 84 119 157 154 45 21 39 21 2505 43 657 6
1411 13 1675 16 517 6 1835 18 3865 35 701 6 1313 12 1360 13 304 9 370 7 409
-12z m-16125 -76 c-4 -9 -15 -20 -25 -26 -16 -8 -19 -6 -19 16 0 20 5 25 25
25 18 0 23 -4 19 -15z m-24 -345 c0 -22 -4 -40 -10 -40 -5 0 -10 18 -10 40 0
22 5 40 10 40 6 0 10 -18 10 -40z m60 -400 c0 -17 -7 -20 -40 -20 -33 0 -40 3
-40 20 0 17 7 20 40 20 33 0 40 -3 40 -20z m-10 -72 c0 -18 3 -43 6 -55 5 -19
2 -23 -15 -23 -12 0 -21 6 -21 15 0 8 -4 15 -10 15 -5 0 -10 18 -10 40 0 36 3
40 25 40 22 0 25 -5 25 -32z m-55 -118 c3 -5 1 -10 -4 -10 -6 0 -11 5 -11 10
0 6 2 10 4 10 3 0 8 -4 11 -10z m8 -70 c3 -13 0 -20 -9 -20 -8 0 -14 10 -14
26 0 28 15 25 23 -6z m-23 -245 c0 -8 -7 -15 -15 -15 -16 0 -20 12 -8 23 11
12 23 8 23 -8z m80 -105 c0 -5 -18 -10 -40 -10 -22 0 -40 5 -40 10 0 6 18 10
40 10 22 0 40 -4 40 -10z m-60 -270 c0 -22 -4 -40 -10 -40 -5 0 -10 18 -10 40
0 22 5 40 10 40 6 0 10 -18 10 -40z m-20 -240 c0 -5 -4 -10 -10 -10 -5 0 -10
5 -10 10 0 6 5 10 10 10 6 0 10 -4 10 -10z m12845 -141 c1909 -7 3473 -15
3477 -18 12 -10 -11 -4789 -23 -4841 -6 -25 -22 -65 -36 -89 l-25 -43 -242 6
c-132 4 -358 11 -501 16 -143 5 -397 14 -565 20 -168 5 -435 14 -595 20 -159
5 -432 14 -605 20 -173 6 -439 15 -590 20 -151 5 -410 14 -575 20 -165 6 -424
15 -575 20 -151 6 -529 20 -840 30 -711 25 -1566 57 -1860 70 -124 5 -340 14
-480 20 -140 6 -331 15 -425 22 -93 6 -190 12 -215 13 -49 1 -107 9 -217 31
-40 8 -112 14 -162 14 -49 0 -117 7 -150 16 -33 8 -84 13 -113 11 -29 -2 -60
-1 -69 4 -8 4 -60 10 -115 14 -54 3 -114 8 -131 11 -18 3 -68 7 -110 9 -43 3
-91 7 -108 10 -16 2 -64 7 -105 10 -41 4 -82 9 -90 12 -8 2 -89 9 -180 14 -91
5 -199 13 -240 17 -41 5 -89 5 -106 2 -42 -10 -60 6 -89 79 l-25 61 0 2201 0
2202 1608 -6 c884 -4 3169 -12 5077 -18z m-12635 -449 c11 -7 7 -10 -17 -10
-32 0 -33 -2 -33 -40 0 -22 -4 -40 -10 -40 -14 0 -12 68 3 85 14 17 36 19 57
5z m110 -1155 c0 -22 -3 -24 -19 -16 -31 17 -34 41 -6 41 20 0 25 -5 25 -25z
m-160 -40 c0 -8 -7 -15 -16 -15 -14 0 -14 3 -4 15 7 8 14 15 16 15 2 0 4 -7 4
-15z m120 -55 c-17 -22 -34 -40 -36 -40 -2 0 -4 18 -4 40 0 39 1 40 36 40 l36
0 -32 -40z m-40 -136 c0 -14 -3 -14 -15 -4 -8 7 -15 14 -15 16 0 2 7 4 15 4 8
0 15 -7 15 -16z m0 -313 c0 -5 -9 -7 -20 -4 -11 3 -20 7 -20 9 0 2 9 4 20 4
11 0 20 -4 20 -9z m0 -61 c0 -5 -10 -10 -22 -9 -22 0 -22 1 -3 9 11 5 21 9 23
9 1 1 2 -3 2 -9z m-80 -346 c0 -14 -3 -14 -15 -4 -8 7 -15 14 -15 16 0 2 7 4
15 4 8 0 15 -7 15 -16z m-80 -154 c0 -5 -4 -10 -10 -10 -5 0 -10 5 -10 10 0 6
5 10 10 10 6 0 10 -4 10 -10z m50 0 c0 -5 -2 -10 -4 -10 -3 0 -8 5 -11 10 -3
6 -1 10 4 10 6 0 11 -4 11 -10z m110 -140 c0 -5 -18 -10 -40 -10 -22 0 -40 5
-40 10 0 6 18 10 40 10 22 0 40 -4 40 -10z m-80 -75 c0 -8 -7 -15 -16 -15 -14
0 -14 3 -4 15 7 8 14 15 16 15 2 0 4 -7 4 -15z m-243 -487 c-3 -8 -6 -5 -6 6
-1 11 2 17 5 13 3 -3 4 -12 1 -19z m243 -308 c0 -17 -7 -20 -40 -20 -33 0 -40
3 -40 20 0 17 7 20 40 20 33 0 40 -3 40 -20z m-897 -257 c-13 -2 -33 -2 -45 0
-13 2 -3 4 22 4 25 0 35 -2 23 -4z m-240 -10 c-13 -2 -33 -2 -45 0 -13 2 -3 4
22 4 25 0 35 -2 23 -4z m3252 -754 c273 -9 390 -18 580 -40 44 -6 105 -12 135
-15 196 -16 370 -38 399 -50 18 -8 53 -14 77 -14 49 0 59 -16 17 -26 -16 -4
-33 -11 -40 -16 -6 -5 -86 -12 -178 -15 -166 -6 -438 6 -785 33 -102 8 -243
19 -315 24 -71 5 -159 14 -195 20 -36 5 -114 14 -175 20 -237 22 -355 43 -355
61 0 4 -19 10 -42 13 -24 4 -50 11 -58 16 -17 10 506 5 935 -11z"/>
<path d="M23514 12800 c-144 -20 -236 -174 -184 -312 25 -67 89 -131 146 -147
22 -6 123 -14 226 -18 145 -5 194 -3 220 7 115 47 172 167 138 291 -14 50 -72
114 -121 133 -23 10 -90 22 -148 27 -58 5 -135 13 -171 17 -36 4 -83 5 -106 2z"/>
<path d="M21912 12789 c-75 -23 -131 -77 -157 -149 -28 -80 -12 -166 42 -230
62 -72 87 -79 312 -89 110 -5 219 -5 241 -1 63 11 119 56 150 118 l26 53 35
-53 c26 -40 48 -59 90 -81 55 -28 60 -29 265 -34 198 -6 211 -5 250 15 146 75
172 272 50 380 -54 47 -67 50 -417 78 -50 5 -88 2 -114 -6 -50 -16 -117 -79
-140 -130 -10 -22 -21 -40 -26 -40 -4 0 -16 17 -26 38 -24 47 -98 98 -155 106
-24 3 -95 10 -158 16 -63 5 -142 11 -175 14 -33 3 -75 1 -93 -5z"/>
<path d="M16315 9850 c-44 -4 -128 -11 -187 -15 -59 -5 -111 -11 -116 -14 -13
-8 -26 -1531 -13 -1550 7 -10 48 -15 172 -19 155 -4 176 -3 389 33 124 21 231
42 238 48 9 7 12 76 12 284 l0 274 28 -3 27 -3 3 -321 2 -321 107 -6 c171 -11
241 -8 358 13 61 11 151 27 200 36 50 9 97 19 105 23 13 7 16 87 20 597 l5
589 44 3 c24 2 48 -1 53 -6 5 -5 8 -280 8 -635 0 -419 3 -628 10 -632 6 -4 84
-9 173 -12 158 -6 169 -5 369 32 114 21 211 41 216 44 6 4 12 243 16 595 5
453 9 592 19 598 6 4 24 8 38 8 14 0 47 3 73 6 l46 7 0 -646 c0 -629 1 -647
19 -657 11 -6 91 -10 189 -10 162 0 256 12 439 55 18 4 25 -1 37 -30 l15 -35
68 0 c37 -1 85 -3 105 -6 24 -4 100 8 208 31 94 20 175 33 180 30 6 -3 10 -19
10 -34 l0 -28 92 -7 c200 -14 342 -2 480 40 13 4 21 -2 28 -21 5 -14 15 -27
22 -29 7 -3 234 -9 503 -15 l490 -11 167 39 c92 22 172 42 178 46 13 8 14 272
1 280 -5 3 -145 9 -311 14 -165 5 -304 12 -308 16 -4 3 -7 289 -7 633 l0 627
-180 8 c-136 6 -206 5 -288 -6 -82 -10 -110 -11 -117 -2 -7 8 -87 14 -252 18
-238 6 -255 5 -540 -29 -32 -4 -62 -12 -68 -19 -10 -12 -69 -198 -108 -338 -9
-31 -20 -56 -25 -54 -5 1 -40 101 -76 220 -37 119 -71 221 -77 227 -7 7 -394
13 -574 9 -19 -1 -81 1 -138 4 -57 3 -359 8 -670 12 -312 3 -641 8 -732 11
-160 6 -339 -4 -530 -30 l-85 -11 -5 -275 -5 -275 -27 -3 -28 -3 0 295 c0 282
-1 296 -19 306 -22 11 -348 11 -476 0z"/>
<path d="M10620 21523 c36 -2 69 -8 75 -14 14 -14 25 -11 25 6 0 12 -15 15
-82 13 -81 -2 -81 -2 -18 -5z"/>
<path d="M10480 21385 c0 -20 5 -25 25 -25 22 0 24 3 16 19 -17 31 -41 34 -41
6z"/>
<path d="M10640 21290 c0 -5 5 -10 10 -10 6 0 10 5 10 10 0 6 -4 10 -10 10 -5
0 -10 -4 -10 -10z"/>
<path d="M10240 20970 c0 -5 18 -10 40 -10 22 0 40 5 40 10 0 6 -18 10 -40 10
-22 0 -40 -4 -40 -10z"/>
<path d="M10343 20840 c0 -25 2 -35 4 -22 2 12 2 32 0 45 -2 12 -4 2 -4 -23z"/>
<path d="M10401 20864 c0 -11 3 -14 6 -6 3 7 2 16 -1 19 -3 4 -6 -2 -5 -13z"/>
<path d="M10180 20760 c0 -22 5 -40 10 -40 6 0 10 18 10 40 0 22 -4 40 -10 40
-5 0 -10 -18 -10 -40z"/>
<path d="M10227 20727 c-8 -72 -5 -99 8 -85 3 3 5 41 3 84 l-3 79 -8 -78z"/>
<path d="M10000 20550 c0 -5 18 -10 40 -10 22 0 40 5 40 10 0 6 -18 10 -40 10
-22 0 -40 -4 -40 -10z"/>
<path d="M10080 20495 c0 -8 7 -15 16 -15 14 0 14 3 4 15 -7 8 -14 15 -16 15
-2 0 -4 -7 -4 -15z"/>
<path d="M10132 20468 c6 -18 28 -21 28 -4 0 9 -7 16 -16 16 -9 0 -14 -5 -12
-12z"/>
<path d="M10083 20360 c0 -25 2 -35 4 -22 2 12 2 32 0 45 -2 12 -4 2 -4 -23z"/>
<path d="M10205 20310 c3 -5 13 -10 21 -10 8 0 14 5 14 10 0 6 -9 10 -21 10
-11 0 -17 -4 -14 -10z"/>
<path d="M10080 20090 c0 -5 5 -10 10 -10 6 0 10 5 10 10 0 6 -4 10 -10 10 -5
0 -10 -4 -10 -10z"/>
<path d="M9760 20040 c0 -22 5 -40 10 -40 6 0 10 18 10 40 0 22 -4 40 -10 40
-5 0 -10 -18 -10 -40z"/>
<path d="M10060 20015 c-10 -12 -10 -15 4 -15 9 0 16 7 16 15 0 8 -2 15 -4 15
-2 0 -9 -7 -16 -15z"/>
<path d="M9920 19912 c0 -5 14 -7 30 -4 17 2 30 6 30 8 0 2 -13 4 -30 4 -16 0
-30 -4 -30 -8z"/>
<path d="M9920 19870 c0 -5 7 -10 16 -10 8 0 12 5 9 10 -3 6 -10 10 -16 10 -5
0 -9 -4 -9 -10z"/>
<path d="M9778 19833 c12 -2 32 -2 45 0 12 2 2 4 -23 4 -25 0 -35 -2 -22 -4z"/>
<path d="M9803 19803 c-54 -5 -57 -23 -4 -23 22 0 42 -5 44 -12 3 -7 6 -1 6
15 1 15 0 26 -1 25 -2 -1 -22 -3 -45 -5z"/>
<path d="M9570 19720 c0 -29 4 -40 15 -40 11 0 15 11 15 40 0 29 -4 40 -15 40
-11 0 -15 -11 -15 -40z"/>
<path d="M9840 19690 c0 -5 5 -10 10 -10 6 0 10 5 10 10 0 6 -4 10 -10 10 -5
0 -10 -4 -10 -10z"/>
<path d="M9591 19563 c-1 -40 1 -43 24 -43 18 0 25 5 25 20 0 13 7 20 20 20
13 0 20 7 20 20 0 13 -7 20 -20 20 -13 0 -20 -7 -20 -20 0 -29 -37 -27 -43 3
-2 12 -5 3 -6 -20z"/>
<path d="M9417 18823 c-12 -11 -8 -23 8 -23 8 0 15 7 15 15 0 16 -12 20 -23 8z"/>
<path d="M9335 18230 c3 -5 10 -10 16 -10 5 0 9 5 9 10 0 6 -7 10 -16 10 -8 0
-12 -4 -9 -10z"/>
<path d="M9231 18197 c2 -1 14 -11 27 -21 22 -19 22 -19 22 2 0 17 -6 22 -27
22 -14 0 -24 -1 -22 -3z"/>
<path d="M9200 17955 c0 -9 6 -12 15 -9 8 4 15 7 15 9 0 2 -7 5 -15 9 -9 3
-15 0 -15 -9z"/>
<path d="M9040 17880 c0 -22 5 -40 10 -40 6 0 10 18 10 40 0 22 -4 40 -10 40
-5 0 -10 -18 -10 -40z"/>
<path d="M8960 17504 c0 -14 3 -14 15 -4 8 7 15 14 15 16 0 2 -7 4 -15 4 -8 0
-15 -7 -15 -16z"/>
<path d="M8880 17080 c0 -22 5 -40 10 -40 6 0 10 18 10 40 0 22 -4 40 -10 40
-5 0 -10 -18 -10 -40z"/>
<path d="M8723 16840 c0 -25 2 -35 4 -22 2 12 2 32 0 45 -2 12 -4 2 -4 -23z"/>
<path d="M8760 16840 c0 -22 5 -40 10 -40 6 0 10 18 10 40 0 22 -4 40 -10 40
-5 0 -10 -18 -10 -40z"/>
<path d="M8640 16740 c0 -17 7 -20 40 -20 33 0 40 3 40 20 0 17 -7 20 -40 20
-33 0 -40 -3 -40 -20z"/>
<path d="M8780 16680 c0 -22 5 -40 10 -40 6 0 10 18 10 40 0 22 -4 40 -10 40
-5 0 -10 -18 -10 -40z"/>
<path d="M8720 16624 c0 -14 3 -14 15 -4 8 7 15 14 15 16 0 2 -7 4 -15 4 -8 0
-15 -7 -15 -16z"/>
<path d="M8640 16470 c0 -5 18 -10 40 -10 22 0 40 5 40 10 0 6 -18 10 -40 10
-22 0 -40 -4 -40 -10z"/>
<path d="M8560 16280 c0 -22 5 -40 10 -40 6 0 10 18 10 40 0 22 -4 40 -10 40
-5 0 -10 -18 -10 -40z"/>
<path d="M8640 16230 c0 -5 18 -10 40 -10 22 0 40 5 40 10 0 6 -18 10 -40 10
-22 0 -40 -4 -40 -10z"/>
<path d="M8480 15800 c0 -22 5 -40 10 -40 6 0 10 18 10 40 0 22 -4 40 -10 40
-5 0 -10 -18 -10 -40z"/>
<path d="M8350 15740 c0 -11 -7 -20 -15 -20 -8 0 -15 -9 -15 -20 0 -11 7 -20
15 -20 8 0 15 9 15 20 0 15 7 20 25 20 18 0 25 5 25 20 0 15 -7 20 -25 20 -18
0 -25 -5 -25 -20z"/>
<path d="M8400 15650 c0 -28 -2 -30 -40 -30 -33 0 -40 3 -40 20 0 17 -7 20
-40 20 -38 0 -40 -2 -40 -30 l0 -30 60 0 60 0 0 -40 c0 -33 -3 -40 -20 -40
-13 0 -20 -7 -20 -20 0 -17 7 -20 40 -20 33 0 40 -3 40 -20 0 -11 5 -20 10
-20 6 0 10 18 10 40 0 22 -4 40 -10 40 -5 0 -10 18 -10 40 0 22 5 40 10 40 6
0 10 18 10 40 0 22 -4 40 -10 40 -5 0 -10 -13 -10 -30z"/>
<path d="M8240 14840 c0 -22 5 -40 10 -40 6 0 10 18 10 40 0 22 -4 40 -10 40
-5 0 -10 -18 -10 -40z"/>
<path d="M8283 14662 c-35 -3 -43 -7 -43 -23 0 -16 7 -19 40 -19 22 0 40 4 40
9 0 5 7 11 17 13 34 6 -11 23 -54 20z"/>
<path d="M8372 14468 c6 -18 28 -21 28 -4 0 9 -7 16 -16 16 -9 0 -14 -5 -12
-12z"/>
<path d="M8240 14416 c0 -9 7 -16 16 -16 9 0 14 5 12 12 -6 18 -28 21 -28 4z"/>
<path d="M8217 14263 c-12 -11 -8 -23 8 -23 8 0 15 7 15 15 0 16 -12 20 -23 8z"/>
<path d="M8160 14160 c0 -47 4 -80 10 -80 6 0 10 33 10 80 0 47 -4 80 -10 80
-6 0 -10 -33 -10 -80z"/>
<path d="M8270 14150 c20 -13 50 -13 50 0 0 6 -15 10 -32 10 -25 0 -29 -3 -18
-10z"/>
<path d="M8270 14090 c-11 -7 -7 -10 18 -10 17 0 32 5 32 10 0 13 -30 13 -50
0z"/>
<path d="M8480 14016 c0 -9 5 -16 10 -16 6 0 10 4 10 9 0 6 -4 13 -10 16 -5 3
-10 -1 -10 -9z"/>
<path d="M8080 13945 c0 -20 5 -25 25 -25 22 0 24 3 16 19 -17 31 -41 34 -41
6z"/>
<path d="M8212 13883 c-2 -39 -5 -43 -27 -43 -14 0 -25 -4 -25 -10 0 -5 18
-10 40 -10 22 0 40 5 40 10 0 6 -4 10 -9 10 -6 0 -12 19 -14 43 l-4 42 -1 -42z"/>
<path d="M8304 13866 c-5 -13 -3 -21 4 -24 7 -2 13 -22 14 -45 1 -36 2 -37 5
-11 2 18 0 47 -5 65 -8 30 -11 31 -18 15z"/>
<path d="M8080 13815 c0 -22 3 -24 19 -16 31 17 34 41 6 41 -20 0 -25 -5 -25
-25z"/>
<path d="M8160 13695 c0 -8 7 -15 16 -15 14 0 14 3 4 15 -7 8 -14 15 -16 15
-2 0 -4 -7 -4 -15z"/>
<path d="M8160 13589 c0 -5 5 -7 10 -4 6 3 10 8 10 11 0 2 -4 4 -10 4 -5 0
-10 -5 -10 -11z"/>
<path d="M8200 13535 c0 -9 9 -15 25 -15 18 0 23 4 19 15 -4 8 -15 15 -25 15
-10 0 -19 -7 -19 -15z"/>
<path d="M8080 13510 c0 -5 18 -10 40 -10 22 0 40 5 40 10 0 6 -18 10 -40 10
-22 0 -40 -4 -40 -10z"/>
<path d="M8320 13450 c0 -5 5 -10 10 -10 6 0 10 5 10 10 0 6 -4 10 -10 10 -5
0 -10 -4 -10 -10z"/>
<path d="M8080 13415 c0 -22 3 -24 19 -16 31 17 34 41 6 41 -20 0 -25 -5 -25
-25z"/>
<path d="M8160 13344 c0 -14 3 -14 15 -4 8 7 15 14 15 16 0 2 -7 4 -15 4 -8 0
-15 -7 -15 -16z"/>
<path d="M8080 13210 c0 -5 18 -10 40 -10 22 0 40 -4 40 -10 0 -5 18 -10 40
-10 22 0 40 5 40 10 0 6 -18 10 -40 10 -22 0 -40 5 -40 10 0 6 -18 10 -40 10
-22 0 -40 -4 -40 -10z"/>
<path d="M8040 13080 c0 -33 3 -40 20 -40 17 0 20 7 20 40 0 33 -3 40 -20 40
-17 0 -20 -7 -20 -40z"/>
<path d="M8140 13080 c0 -22 5 -40 10 -40 6 0 10 18 10 40 0 22 -4 40 -10 40
-5 0 -10 -18 -10 -40z"/>
<path d="M8160 12920 c0 -22 5 -40 10 -40 6 0 10 18 10 40 0 22 -4 40 -10 40
-5 0 -10 -18 -10 -40z"/>
<path d="M8280 12876 c0 -2 9 -6 20 -9 11 -3 20 -1 20 4 0 5 -9 9 -20 9 -11 0
-20 -2 -20 -4z"/>
<path d="M8295 12810 c-19 -8 -19 -9 3 -9 12 -1 22 4 22 9 0 6 -1 10 -2 9 -2
0 -12 -4 -23 -9z"/>
<path d="M8076 12490 c-10 -96 -4 -110 45 -110 21 0 39 5 39 10 0 6 -13 10
-30 10 l-30 0 0 80 c0 44 -4 80 -9 80 -4 0 -12 -32 -15 -70z"/>
<path d="M8000 12350 c0 -17 7 -20 40 -20 33 0 40 3 40 20 0 17 -7 20 -40 20
-33 0 -40 -3 -40 -20z"/>
<path d="M8000 12300 c0 -17 7 -20 40 -20 33 0 40 3 40 20 0 17 -7 20 -40 20
-33 0 -40 -3 -40 -20z"/>
<path d="M8240 12304 c0 -14 3 -14 15 -4 8 7 15 14 15 16 0 2 -7 4 -15 4 -8 0
-15 -7 -15 -16z"/>
<path d="M8080 12120 l0 -40 40 0 40 0 0 40 0 40 -40 0 -40 0 0 -40z"/>
<path d="M8160 11960 c0 -22 5 -40 10 -40 6 0 10 18 10 40 0 22 -4 40 -10 40
-5 0 -10 -18 -10 -40z"/>
<path d="M8240 11850 c0 -5 5 -10 10 -10 6 0 10 5 10 10 0 6 -4 10 -10 10 -5
0 -10 -4 -10 -10z"/>
<path d="M8020 11800 c0 -22 -4 -40 -10 -40 -5 0 -10 -7 -10 -15 0 -18 4 -18
47 -3 30 11 33 15 33 55 0 41 -1 43 -30 43 -28 0 -30 -2 -30 -40z"/>
<path d="M8160 11770 c0 -5 18 -10 40 -10 22 0 40 5 40 10 0 6 -18 10 -40 10
-22 0 -40 -4 -40 -10z"/>
<path d="M8080 11720 c0 -5 18 -10 40 -10 22 0 40 5 40 10 0 6 -18 10 -40 10
-22 0 -40 -4 -40 -10z"/>
<path d="M8160 11590 c0 -5 18 -10 40 -10 22 0 40 5 40 10 0 6 -18 10 -40 10
-22 0 -40 -4 -40 -10z"/>
<path d="M8080 11400 c0 -33 3 -40 20 -40 17 0 20 7 20 40 0 33 -3 40 -20 40
-17 0 -20 -7 -20 -40z"/>
<path d="M8160 11145 c0 -20 5 -25 25 -25 22 0 24 3 16 19 -17 31 -41 34 -41
6z"/>
<path d="M8240 10790 c0 -5 18 -10 40 -10 22 0 40 5 40 10 0 6 -18 10 -40 10
-22 0 -40 -4 -40 -10z"/>
<path d="M8430 10090 c0 -5 5 -10 10 -10 6 0 10 5 10 10 0 6 -4 10 -10 10 -5
0 -10 -4 -10 -10z"/>
<path d="M8160 9980 c0 -17 7 -20 40 -20 33 0 40 3 40 20 0 17 -7 20 -40 20
-33 0 -40 -3 -40 -20z"/>
<path d="M8320 9955 c0 -10 7 -15 18 -13 21 4 19 22 -2 26 -10 2 -16 -3 -16
-13z"/>
<path d="M8320 9880 c0 -22 5 -40 10 -40 6 0 10 18 10 40 0 22 -4 40 -10 40
-5 0 -10 -18 -10 -40z"/>
<path d="M8320 9770 c0 -5 18 -10 40 -10 22 0 40 5 40 10 0 6 -18 10 -40 10
-22 0 -40 -4 -40 -10z"/>
<path d="M8400 9720 c0 -5 5 -10 10 -10 6 0 10 5 10 10 0 6 -4 10 -10 10 -5 0
-10 -4 -10 -10z"/>
<path d="M8320 9656 c0 -13 -7 -26 -15 -30 -24 -9 -17 -26 10 -26 23 0 25 4
25 40 0 22 -4 40 -10 40 -5 0 -10 -11 -10 -24z"/>
<path d="M8385 9510 c3 -5 8 -10 11 -10 2 0 4 5 4 10 0 6 -5 10 -11 10 -5 0
-7 -4 -4 -10z"/>
<path d="M8320 9460 c0 -11 7 -20 15 -20 8 0 15 9 15 20 0 11 -7 20 -15 20 -8
0 -15 -9 -15 -20z"/>
<path d="M8372 9348 c6 -18 28 -21 28 -4 0 9 -7 16 -16 16 -9 0 -14 -5 -12
-12z"/>
<path d="M8320 9296 c0 -9 7 -16 16 -16 9 0 14 5 12 12 -6 18 -28 21 -28 4z"/>
<path d="M8380 8920 c0 -22 5 -40 10 -40 6 0 10 18 10 40 0 22 -4 40 -10 40
-5 0 -10 -18 -10 -40z"/>
<path d="M8320 8840 c0 -22 5 -40 10 -40 6 0 10 18 10 40 0 22 -4 40 -10 40
-5 0 -10 -18 -10 -40z"/>
<path d="M8320 8600 c0 -73 4 -120 10 -120 6 0 10 18 10 40 0 22 5 40 10 40 6
0 10 18 10 40 0 22 -4 40 -10 40 -5 0 -10 18 -10 40 0 22 -4 40 -10 40 -6 0
-10 -47 -10 -120z"/>
<path d="M8400 8520 c0 -22 5 -40 10 -40 6 0 10 18 10 40 0 22 -4 40 -10 40
-5 0 -10 -18 -10 -40z"/>
<path d="M8240 8455 c0 -11 11 -15 40 -15 29 0 40 4 40 15 0 11 -11 15 -40 15
-29 0 -40 -4 -40 -15z"/>
<path d="M8372 8388 c6 -18 28 -21 28 -4 0 9 -7 16 -16 16 -9 0 -14 -5 -12
-12z"/>
<path d="M8320 8336 c0 -9 7 -16 16 -16 9 0 14 5 12 12 -6 18 -28 21 -28 4z"/>
<path d="M8240 8280 c0 -5 18 -10 40 -10 22 0 40 5 40 10 0 6 -18 10 -40 10
-22 0 -40 -4 -40 -10z"/>
<path d="M8160 8120 c0 -22 2 -40 4 -40 2 0 19 18 36 40 l32 40 -36 0 c-35 0
-36 -1 -36 -40z"/>
<path d="M8200 7960 c0 -43 15 -54 23 -17 2 12 8 30 12 40 5 13 2 17 -14 17
-18 0 -21 -6 -21 -40z"/>
<path d="M8240 7930 c0 -5 18 -10 40 -10 22 0 40 5 40 10 0 6 -18 10 -40 10
-22 0 -40 -4 -40 -10z"/>
<path d="M8160 7740 c0 -53 2 -60 20 -60 17 0 20 7 20 40 0 33 3 40 20 40 13
0 20 7 20 20 0 17 -7 20 -40 20 l-40 0 0 -60z"/>
<path d="M8240 7680 c0 -17 7 -20 40 -20 33 0 40 3 40 20 0 17 -7 20 -40 20
-33 0 -40 -3 -40 -20z"/>
<path d="M51 2555 c-2 -11 -5 -49 -7 -84 -5 -85 -14 -90 -15 -10 l-2 64 -7
-55 c-5 -30 -11 -599 -16 -1264 l-7 -1209 8229 7 c7819 6 11344 13 11353 22 2
2 -172 4 -387 4 -356 0 -424 4 -379 24 6 3 -1 3 -18 -1 -16 -3 -34 -9 -40 -13
-14 -11 -887 -11 -880 0 3 4 38 6 78 4 39 -3 122 -1 182 4 102 9 93 9 -132 11
-155 0 -243 5 -243 11 0 6 5 10 11 10 5 0 7 4 4 10 -3 5 0 10 9 10 8 0 17 -6
19 -12 4 -10 8 -9 16 2 17 24 13 30 -18 30 -20 0 -31 6 -34 17 -3 11 -5 7 -6
-9 l-1 -28 -80 0 c-47 0 -80 4 -80 10 0 6 -33 10 -80 10 -47 0 -80 -4 -80 -10
0 -6 29 -10 66 -10 41 0 63 -4 59 -10 -3 -5 3 -10 14 -10 12 0 21 -4 21 -10 0
-6 -55 -10 -147 -9 -92 0 -140 4 -128 9 11 5 31 9 44 9 23 1 24 2 6 21 -16 18
-31 20 -137 20 -72 0 -118 4 -118 10 0 6 -33 10 -80 10 -47 0 -80 4 -80 10 0
6 -13 10 -30 10 -16 0 -30 -4 -30 -10 0 -5 -22 -10 -50 -10 -27 0 -50 5 -50
10 0 6 -11 10 -24 10 -13 0 -28 6 -34 13 -12 14 -102 11 -102 -4 0 -17 -28 -9
-42 12 -13 20 -22 22 -96 20 -77 -2 -82 -1 -82 18 0 12 -4 21 -10 21 -5 0 -10
-9 -10 -20 0 -17 -7 -20 -40 -20 -33 0 -40 3 -40 20 0 11 -4 20 -10 20 -5 0
-10 -18 -10 -40 0 -38 -2 -40 -30 -40 -16 0 -30 5 -30 10 0 6 -18 10 -40 10
-38 0 -40 2 -40 30 0 28 -2 30 -39 30 -22 0 -42 -6 -45 -12 -5 -10 -7 -10 -12
-1 -3 7 -14 13 -24 13 -10 0 -21 6 -24 13 -5 9 -7 9 -12 0 -13 -29 -84 -6 -84
27 0 20 -28 40 -54 40 -19 0 -26 -5 -26 -20 0 -13 -7 -20 -20 -20 -13 0 -20 7
-20 20 0 13 -7 20 -20 20 -11 0 -20 -7 -20 -15 0 -9 -10 -15 -27 -16 -16 -1
-61 -3 -100 -5 -68 -4 -73 -3 -73 16 0 13 -7 20 -20 20 -13 0 -20 -7 -20 -20
0 -17 -7 -20 -40 -20 -22 0 -40 5 -40 10 0 6 -18 10 -40 10 -22 0 -40 -4 -40
-10 0 -5 -18 -10 -40 -10 -57 0 -55 27 3 33 23 2 5 4 -40 5 -50 1 -83 -2 -83
-8 0 -5 -18 -10 -40 -10 -22 0 -40 5 -40 10 0 6 8 10 17 10 14 0 15 2 4 12
-11 10 -14 10 -18 1 -5 -15 -33 -18 -33 -3 0 10 -55 27 -105 33 -22 3 -19 4
13 6 30 1 42 5 42 16 0 11 -11 15 -40 15 -22 0 -40 -4 -40 -10 0 -5 -18 -10
-40 -10 -22 0 -40 -4 -40 -10 0 -18 -29 -11 -40 10 -14 27 -57 26 -65 -1 -10
-30 -36 -19 -50 20 -10 29 -12 31 -24 17 -10 -12 -31 -16 -77 -16 -61 0 -63 1
-66 28 l-3 27 -26 -28 c-32 -33 -49 -35 -50 -4 l0 22 -9 -22 c-12 -30 -48 -30
-60 -1 l-9 23 0 -22 c-1 -22 -5 -23 -81 -23 -47 0 -80 4 -80 10 0 6 -33 10
-80 10 l-80 0 0 29 c0 20 6 31 17 33 15 3 15 4 0 17 -15 12 -17 11 -17 -3 0
-12 -10 -16 -40 -16 -22 0 -40 -4 -40 -10 0 -6 -33 -10 -80 -10 -73 0 -80 2
-80 20 0 17 -7 20 -40 20 -22 0 -40 -4 -40 -10 0 -18 -22 -10 -49 18 l-26 27
-3 -27 c-3 -25 -7 -28 -43 -28 -32 0 -39 3 -39 20 0 18 -7 20 -80 20 -73 0
-80 2 -80 20 0 17 -7 20 -40 20 -22 0 -40 5 -40 10 0 6 -18 10 -40 10 -33 0
-40 -3 -40 -20 0 -18 -7 -20 -80 -20 l-80 0 0 50 c0 28 -4 50 -10 50 -5 0 -10
-18 -10 -40 0 -38 -2 -40 -30 -40 -23 0 -30 4 -30 20 0 17 -7 20 -40 20 -33 0
-40 -3 -40 -20 0 -16 -7 -20 -30 -20 -28 0 -30 2 -30 40 0 22 -4 40 -10 40 -5
0 -10 -22 -10 -50 l0 -50 -40 0 -40 0 0 50 c0 58 -11 63 -49 22 l-26 -27 -3
27 c-3 25 -7 28 -43 28 -21 0 -39 5 -39 10 0 6 -47 10 -120 10 -73 0 -120 4
-120 10 0 6 -18 10 -40 10 -33 0 -40 3 -40 20 0 11 -4 20 -10 20 -5 0 -10 -18
-10 -40 0 -38 -2 -40 -30 -40 -23 0 -30 4 -30 20 0 19 -7 20 -160 20 -153 0
-160 1 -160 20 0 28 -18 25 -49 -8 l-26 -27 -3 27 -3 28 -103 0 c-68 0 -106
-4 -114 -12 -16 -16 -27 -1 -42 55 -14 48 -26 47 -42 -5 -9 -34 -13 -38 -16
-20 -3 21 -8 22 -83 22 -46 0 -79 -4 -79 -10 0 -5 -18 -10 -39 -10 -22 0 -41
-5 -43 -11 -2 -7 -19 7 -37 30 l-33 41 36 0 c20 0 36 5 36 10 0 6 -18 10 -39
10 -39 0 -40 -1 -43 -38 l-3 -37 -26 28 c-15 15 -31 27 -38 27 -6 0 -11 5 -11
10 0 6 -33 10 -80 10 -47 0 -80 4 -80 10 0 6 -18 10 -40 10 -33 0 -40 3 -40
20 0 17 -7 20 -40 20 l-40 0 0 -40 0 -40 -50 0 -50 0 0 40 c0 22 5 40 10 40 6
0 10 9 10 20 0 17 -7 20 -40 20 -33 0 -40 -3 -40 -20 0 -18 -7 -20 -82 -20
l-83 0 -37 42 c-33 38 -37 40 -38 21 0 -20 -5 -23 -40 -23 -33 0 -40 -3 -40
-20 0 -16 -7 -20 -31 -20 -30 0 -30 1 -28 45 2 25 -2 50 -9 57 -9 9 -12 8 -12
-5 0 -10 -8 -17 -20 -17 -17 0 -20 -7 -20 -40 0 -33 -3 -40 -19 -40 -11 0 -21
-7 -23 -17 -3 -15 -4 -15 -17 0 -12 15 -11 17 3 17 12 0 16 10 16 40 0 40 0
40 -39 40 -36 0 -40 3 -43 28 l-3 27 -26 -27 c-37 -39 -49 -35 -49 15 l-1 42
-39 -45 c-34 -39 -39 -42 -40 -22 0 19 -5 22 -40 22 -33 0 -40 3 -40 20 0 13
-7 20 -20 20 -17 0 -20 -7 -20 -40 l0 -40 -60 0 -60 0 0 40 c0 34 -3 40 -22
40 -12 0 -30 7 -40 17 -17 15 -18 14 -18 -40 0 -32 -4 -57 -10 -57 -5 0 -10
18 -10 40 0 38 -2 40 -30 40 -23 0 -30 4 -30 20 0 17 -7 20 -40 20 -22 0 -40
-4 -40 -10 0 -5 -18 -10 -40 -10 -22 0 -40 -4 -40 -10 0 -5 -13 -10 -30 -10
-28 0 -30 2 -30 40 0 22 -4 40 -10 40 -5 0 -10 -13 -10 -30 l0 -30 -80 0 -80
0 0 30 0 30 -60 0 -60 0 0 -40 c0 -33 -3 -40 -20 -40 -11 0 -20 5 -20 10 0 6
-18 10 -40 10 -22 0 -40 5 -40 10 0 6 18 10 40 10 22 0 40 5 40 10 0 6 -18 10
-40 10 -22 0 -40 5 -40 10 0 6 -18 10 -40 10 -33 0 -40 3 -40 20 0 19 -7 20
-120 20 -73 0 -120 4 -120 10 0 6 -47 10 -120 10 -73 0 -120 -4 -120 -10 0 -5
-4 -10 -10 -10 -5 0 -10 9 -10 20 0 11 5 20 10 20 6 0 10 13 10 28 0 15 5 33
12 40 9 9 7 12 -10 12 -19 0 -22 -5 -22 -40 0 -38 -2 -40 -30 -40 -21 0 -30
-5 -30 -17 0 -15 -1 -15 -18 0 -13 12 -37 17 -80 17 l-62 0 0 40 0 40 40 0
c22 0 40 5 40 10 0 6 -33 10 -80 10 -73 0 -80 -2 -80 -20 0 -18 -7 -20 -80
-20 -44 0 -80 4 -80 8 0 5 -18 15 -40 22 -51 17 -51 36 0 45 80 13 37 25 -91
25 -131 0 -132 0 -158 28 l-26 27 -3 -27 c-3 -25 -7 -28 -43 -28 -21 0 -39 5
-39 10 0 6 -33 10 -80 10 -47 0 -80 4 -80 10 0 6 -8 10 -18 10 -10 0 -24 9
-32 20 -8 11 -18 20 -22 20 -4 0 -8 -9 -8 -20 0 -16 -7 -20 -30 -20 -23 0 -30
4 -30 20 0 11 -4 20 -10 20 -5 0 -10 -9 -10 -20 0 -17 -7 -20 -40 -20 l-40 0
0 40 0 40 -79 0 -79 0 -7 40 c-7 41 -35 57 -35 20 0 -11 -4 -20 -10 -20 -5 0
-10 9 -10 20 0 17 -7 20 -50 20 -36 0 -50 4 -50 14 0 10 -22 16 -80 21 l-80 7
0 38 c0 24 -5 40 -15 44 -8 3 -15 12 -15 21 0 22 -17 18 -23 -5 -4 -15 0 -20
15 -20 18 0 20 -4 14 -31 -3 -17 -6 -35 -6 -40 0 -5 -6 -9 -13 -9 -8 0 -20 18
-27 40 -9 27 -19 40 -32 40 -14 0 -18 -8 -18 -40 0 -33 -3 -40 -20 -40 -13 0
-20 7 -20 20 0 17 -7 20 -40 20 -35 0 -40 -3 -40 -22 -1 -20 -6 -17 -40 22
-34 39 -39 42 -40 23 0 -20 -5 -23 -40 -23 -38 0 -40 2 -40 30 0 28 -2 30 -40
30 -22 0 -40 -4 -40 -10 0 -5 -13 -10 -30 -10 -28 0 -30 2 -30 40 0 22 -4 40
-10 40 -5 0 -10 -18 -10 -40 0 -22 -4 -40 -10 -40 -5 0 -10 18 -10 40 0 26 -5
40 -13 40 -7 0 -18 5 -25 12 -7 7 -32 11 -57 9 -27 -1 -45 2 -45 8 0 6 -18 11
-40 11 -22 0 -40 -4 -40 -10 0 -5 -18 -10 -40 -10 -22 0 -40 5 -40 10 0 6 -33
10 -79 10 -54 0 -81 4 -84 13 -3 6 -8 -3 -12 -20 -5 -22 -13 -33 -25 -33 -12
0 -20 11 -25 33 -4 17 -9 26 -12 20 -6 -16 -163 -18 -163 -3 0 6 -33 10 -80
10 -47 0 -80 4 -80 10 0 6 -5 10 -11 10 -7 0 -23 12 -38 28 -22 23 -26 24 -29
10 -3 -14 -13 -18 -42 -18 -22 0 -40 -5 -42 -12 -3 -7 -8 6 -12 30 -3 24 -10
41 -15 38 -13 -9 -19 -75 -6 -80 12 -5 -14 -26 -32 -26 -15 0 -18 27 -3 32 5
2 6 22 1 53 -7 39 -9 43 -10 18 -1 -32 -3 -33 -41 -33 -22 0 -40 5 -40 10 0 6
-18 10 -40 10 -22 0 -40 5 -40 10 0 6 5 10 10 10 6 0 10 18 10 40 0 22 -4 40
-10 40 -5 0 -10 -18 -10 -40 l0 -40 -40 0 c-22 0 -40 5 -40 10 0 6 -18 10 -40
10 -22 0 -40 -4 -40 -10 0 -6 -27 -10 -60 -10 l-60 0 0 40 c0 33 -3 40 -20 40
-11 0 -20 -4 -20 -10 0 -5 -18 -10 -40 -10 l-40 0 0 -50 c0 -49 -1 -50 -30
-50 -23 0 -30 4 -30 20 0 13 7 20 20 20 17 0 20 7 20 40 0 22 5 40 10 40 6 0
10 9 10 20 0 18 -7 20 -80 20 -73 0 -80 -2 -80 -20 0 -18 -7 -20 -80 -20 -73
0 -80 2 -80 20 0 17 -7 20 -40 20 -35 0 -40 3 -40 23 -1 19 -6 16 -40 -23 -22
-25 -40 -39 -40 -32 0 6 -7 12 -16 12 -20 0 -44 24 -44 44 0 9 -4 16 -10 16
-5 0 -10 -4 -10 -10 0 -5 -18 -10 -40 -10 -22 0 -40 5 -40 10 0 6 -9 10 -20
10 -18 0 -20 -7 -20 -60 l0 -60 -60 0 -60 0 0 60 0 60 -80 0 c-73 0 -80 2 -80
20 0 13 -7 20 -20 20 -13 0 -20 -7 -20 -20 0 -11 -4 -20 -10 -20 -5 0 -10 5
-10 10 0 6 -22 10 -49 10 -42 0 -54 5 -79 30 -26 25 -38 30 -81 30 -44 0 -51
3 -51 20 0 17 -7 20 -40 20 -33 0 -40 -3 -40 -20 0 -17 -7 -20 -40 -20 -33 0
-40 3 -40 20 0 17 -7 20 -40 20 -33 0 -40 3 -40 20 0 28 -18 25 -49 -7 l-26
-28 -3 28 c-3 25 -6 27 -54 27 -42 0 -55 5 -77 28 l-26 27 -3 -25 c-2 -13 1
-26 7 -28 14 -5 15 -82 1 -82 -5 0 -10 10 -10 22 0 12 -7 30 -17 40 -11 12
-12 18 -4 18 7 0 -2 19 -20 41 -22 28 -35 37 -38 28 -2 -8 -17 -26 -32 -41
-23 -23 -36 -28 -78 -28 -28 0 -51 5 -51 10 0 6 -18 10 -40 10 -22 0 -40 5
-40 10 0 6 -18 10 -40 10 -33 0 -40 3 -40 20 0 17 -7 20 -51 20 -42 0 -56 5
-75 25 -13 14 -28 25 -34 25 -6 0 -21 -11 -34 -25 -33 -36 -46 -31 -46 15 0
33 -3 40 -20 40 -17 0 -20 -7 -20 -40 0 -33 -3 -40 -19 -40 -16 0 -20 8 -23
42 l-3 43 -40 -52 c-35 -46 -44 -52 -77 -53 -31 0 -38 3 -38 20 0 18 -7 20
-80 20 -47 0 -80 -4 -80 -10 0 -18 -22 -11 -46 15 -18 20 -33 25 -69 25 -44 0
-45 1 -45 32 0 29 -1 30 -18 15 -10 -10 -28 -17 -40 -17 -13 0 -22 -6 -22 -15
0 -11 -11 -15 -40 -15 -33 0 -40 3 -40 20 0 17 -7 20 -39 20 -22 0 -41 5 -43
11 -2 7 -9 5 -17 -5 -12 -14 -10 -16 19 -16 29 0 31 -2 19 -16 -8 -10 -15 -12
-17 -5 -2 7 -13 6 -32 -4 -43 -22 -49 -19 -52 33 l-3 47 -26 -27 c-18 -19 -36
-28 -58 -28 -30 0 -31 2 -31 40 0 33 -3 40 -20 40 -15 0 -20 -7 -20 -25 0 -22
-4 -25 -39 -25 -22 0 -41 5 -44 13 -2 6 -8 0 -12 -15 -10 -39 -32 -35 -40 8
-9 48 -26 64 -69 64 -30 0 -36 -4 -36 -21 0 -21 -50 -79 -69 -79 -6 0 -11 18
-11 40 l0 40 -40 0 -40 0 0 -40 c0 -22 -4 -40 -10 -40 -5 0 -10 18 -10 40 l0
40 -54 0 c-31 0 -58 5 -64 13 -12 14 -102 11 -102 -4 0 -5 18 -9 40 -9 22 0
40 -4 40 -10 0 -5 -18 -10 -40 -10 -22 0 -40 5 -40 10 0 6 -5 10 -11 10 -7 0
-23 12 -38 28 -22 23 -26 24 -29 10 -3 -14 -13 -18 -43 -18 -21 0 -39 -4 -39
-10 0 -5 -4 -10 -9 -10 -6 0 -12 21 -14 48 -2 26 -5 38 -6 27z m669 -115 c0
-33 -3 -40 -20 -40 -17 0 -20 7 -20 40 0 33 3 40 20 40 17 0 20 -7 20 -40z
m190 -44 c0 -2 -7 -9 -15 -16 -12 -10 -15 -10 -15 4 0 9 7 16 15 16 8 0 15 -2
15 -4z m513 -73 c-13 -2 -33 -2 -45 0 -13 2 -3 4 22 4 25 0 35 -2 23 -4z m621
-18 c-4 -9 -15 -20 -25 -26 -16 -8 -19 -6 -19 16 0 20 5 25 25 25 18 0 23 -4
19 -15z m116 -80 c0 -11 12 -15 43 -16 33 -2 36 -3 12 -6 -34 -5 -105 13 -105
27 0 6 11 10 25 10 16 0 25 -6 25 -15z m1263 -182 c-13 -2 -33 -2 -45 0 -13 2
-3 4 22 4 25 0 35 -2 23 -4z m303 -78 c14 -13 12 -15 -15 -15 -21 0 -31 5 -31
15 0 8 7 15 16 15 8 0 22 -7 30 -15z m834 -84 c0 -14 -5 -18 -20 -14 -25 7
-26 20 -2 26 9 3 18 5 20 6 1 0 2 -8 2 -18z m500 -81 c0 -22 -4 -40 -10 -40
-5 0 -10 10 -10 22 0 12 -7 30 -17 40 -15 17 -15 18 10 18 25 0 27 -3 27 -40z
m640 -80 c0 -22 -4 -40 -10 -40 -5 0 -10 18 -10 40 0 22 5 40 10 40 6 0 10
-18 10 -40z m377 -142 c-3 -8 -6 -5 -6 6 -1 11 2 17 5 13 3 -3 4 -12 1 -19z
m626 -55 c-13 -2 -33 -2 -45 0 -13 2 -3 4 22 4 25 0 35 -2 23 -4z m1857 -393
c0 -5 -18 -10 -40 -10 -22 0 -40 5 -40 10 0 6 18 10 40 10 22 0 40 -4 40 -10z
m480 -106 c0 -14 -3 -14 -15 -4 -8 7 -15 14 -15 16 0 2 7 4 15 4 8 0 15 -7 15
-16z m400 -24 c0 -22 -4 -40 -10 -40 -5 0 -10 18 -10 40 0 22 5 40 10 40 6 0
10 -18 10 -40z m-80 5 c0 -29 2 -28 -40 -14 l-33 12 24 13 c36 20 49 17 49
-11z m689 -69 l24 -13 -33 -12 c-42 -14 -40 -15 -40 14 0 28 13 31 49 11z
m-129 -46 c0 -5 8 -10 17 -10 14 0 15 -2 4 -12 -11 -10 -14 -10 -18 0 -3 7
-22 12 -44 12 -21 0 -39 5 -39 10 0 6 18 10 40 10 22 0 40 -4 40 -10z m510
-14 c0 -2 -7 -9 -15 -16 -12 -10 -15 -10 -15 4 0 9 7 16 15 16 8 0 15 -2 15
-4z m690 -86 c0 -5 -18 -10 -40 -10 -22 0 -40 5 -40 10 0 6 18 10 40 10 22 0
40 -4 40 -10z m556 -147 c-10 -10 -19 5 -10 18 6 11 8 11 12 0 2 -7 1 -15 -2
-18z m404 -19 c0 -14 -3 -14 -15 -4 -8 7 -15 14 -15 16 0 2 7 4 15 4 8 0 15
-7 15 -16z m400 0 c0 -9 -5 -14 -12 -12 -18 6 -21 28 -4 28 9 0 16 -7 16 -16z
m110 8 c0 -5 -7 -17 -15 -28 -14 -18 -14 -18 -15 9 0 17 5 27 15 27 8 0 15 -4
15 -8z m50 -19 c-1 -27 -1 -27 -15 -9 -19 25 -19 36 0 36 10 0 15 -10 15 -27z
m4388 -550 c-10 -2 -26 -2 -35 0 -10 3 -2 5 17 5 19 0 27 -2 18 -5z m597 -23
c-8 -13 -42 -13 -50 0 -4 6 7 10 25 10 18 0 29 -4 25 -10z m215 0 c0 -6 -33
-9 -82 -8 -71 1 -77 2 -38 8 70 11 120 11 120 0z m-592 -7 c-21 -2 -55 -2 -75
0 -21 2 -4 4 37 4 41 0 58 -2 38 -4z m105 0 c-7 -2 -19 -2 -25 0 -7 3 -2 5 12
5 14 0 19 -2 13 -5z"/>
<path d="M586 2513 c-12 -12 -6 -33 9 -33 8 0 15 6 15 14 0 17 -14 28 -24 19z"/>
<path d="M780 2495 c-11 -13 -8 -15 20 -15 28 0 31 2 20 15 -7 8 -16 15 -20
15 -4 0 -13 -7 -20 -15z"/>
<path d="M3180 2175 c-10 -12 -10 -15 4 -15 9 0 16 7 16 15 0 8 -2 15 -4 15
-2 0 -9 -7 -16 -15z"/>
<path d="M5295 1890 c-4 -6 -3 -16 3 -22 6 -6 12 -6 17 2 4 6 3 16 -3 22 -6 6
-12 6 -17 -2z"/>
<path d="M5352 1880 c0 -14 2 -19 5 -12 2 6 2 18 0 25 -3 6 -5 1 -5 -13z"/>
<path d="M5120 1850 c0 -5 18 -10 40 -10 22 0 40 5 40 10 0 6 -18 10 -40 10
-22 0 -40 -4 -40 -10z"/>
<path d="M5698 1843 c12 -2 32 -2 45 0 12 2 2 4 -23 4 -25 0 -35 -2 -22 -4z"/>
<path d="M7938 1363 c12 -2 32 -2 45 0 12 2 2 4 -23 4 -25 0 -35 -2 -22 -4z"/>
<path d="M8360 1213 c0 -10 19 -13 76 -13 100 0 97 21 -4 25 -55 1 -72 -1 -72
-12z"/>
<path d="M8640 1215 c0 -8 7 -15 16 -15 14 0 14 3 4 15 -7 8 -14 15 -16 15 -2
0 -4 -7 -4 -15z"/>
<path d="M9716 1025 c4 -9 15 -20 25 -26 16 -8 19 -6 19 16 0 20 -5 25 -25 25
-18 0 -23 -4 -19 -15z"/>
<path d="M10560 970 c0 -5 7 -10 16 -10 8 0 12 5 9 10 -3 6 -10 10 -16 10 -5
0 -9 -4 -9 -10z"/>
<path d="M12378 723 c7 -3 16 -2 19 1 4 3 -2 6 -13 5 -11 0 -14 -3 -6 -6z"/>
<path d="M14240 470 c0 -5 18 -10 40 -10 22 0 40 5 40 10 0 6 -18 10 -40 10
-22 0 -40 -4 -40 -10z"/>
<path d="M15630 330 c0 -5 5 -10 10 -10 6 0 10 5 10 10 0 6 -4 10 -10 10 -5 0
-10 -4 -10 -10z"/>
<path d="M17840 100 c0 -11 7 -20 16 -20 8 0 12 5 9 10 -4 6 7 10 24 10 17 0
31 5 31 10 0 6 -18 10 -40 10 -33 0 -40 -3 -40 -20z"/>
<path d="M17458 73 c12 -2 32 -2 45 0 12 2 2 4 -23 4 -25 0 -35 -2 -22 -4z"/>
<path d="M18578 53 c12 -2 32 -2 45 0 12 2 2 4 -23 4 -25 0 -35 -2 -22 -4z"/>
<path d="M19623 23 c15 -2 39 -2 55 0 15 2 2 4 -28 4 -30 0 -43 -2 -27 -4z"/>
<path d="M20018 23 c12 -2 32 -2 45 0 12 2 2 4 -23 4 -25 0 -35 -2 -22 -4z"/>
<path d="M20338 23 c23 -2 59 -2 80 0 20 2 1 4 -43 4 -44 0 -61 -2 -37 -4z"/>
</g>
</svg>
